<mxfile host="app.diagrams.net" modified="2021-04-27T18:46:46.238Z" agent="5.0 (Windows NT 10.0; Win64; x64) AppleWebKit/537.36 (KHTML, like Gecko) Chrome/89.0.4389.114 Safari/537.36" version="14.6.6" etag="SxV75TUymKgN75d-rUtC" type="github">
  <diagram id="FaPJa0q46fN_AxUEMvjQ" name="Page-1">
    <mxGraphModel dx="1422" dy="762" grid="1" gridSize="10" guides="1" tooltips="1" connect="1" arrows="1" fold="1" page="1" pageScale="1" pageWidth="827" pageHeight="1169" math="0" shadow="0">
      <root>
        <mxCell id="0" />
        <mxCell id="1" parent="0" />
        <mxCell id="3QxqJV67HX_IBzd8UFvW-1" value="Crawler" style="shape=umlLifeline;perimeter=lifelinePerimeter;whiteSpace=wrap;html=1;container=1;collapsible=0;recursiveResize=0;outlineConnect=0;" vertex="1" parent="1">
          <mxGeometry x="160" y="80" width="100" height="380" as="geometry" />
        </mxCell>
        <mxCell id="3QxqJV67HX_IBzd8UFvW-2" value="" style="html=1;points=[];perimeter=orthogonalPerimeter;" vertex="1" parent="3QxqJV67HX_IBzd8UFvW-1">
          <mxGeometry x="45" y="80" width="10" height="120" as="geometry" />
        </mxCell>
        <mxCell id="3QxqJV67HX_IBzd8UFvW-3" value="" style="html=1;points=[];perimeter=orthogonalPerimeter;" vertex="1" parent="3QxqJV67HX_IBzd8UFvW-1">
          <mxGeometry x="45" y="340" width="10" height="40" as="geometry" />
        </mxCell>
        <mxCell id="3QxqJV67HX_IBzd8UFvW-4" value="BundestagDaten" style="shape=umlLifeline;perimeter=lifelinePerimeter;whiteSpace=wrap;html=1;container=1;collapsible=0;recursiveResize=0;outlineConnect=0;" vertex="1" parent="1">
          <mxGeometry x="320" y="80" width="100" height="160" as="geometry" />
        </mxCell>
        <mxCell id="3QxqJV67HX_IBzd8UFvW-5" value="" style="html=1;points=[];perimeter=orthogonalPerimeter;" vertex="1" parent="3QxqJV67HX_IBzd8UFvW-4">
          <mxGeometry x="45" y="120" width="10" height="40" as="geometry" />
        </mxCell>
        <mxCell id="3QxqJV67HX_IBzd8UFvW-6" value="Text Extraktion" style="shape=umlLifeline;perimeter=lifelinePerimeter;whiteSpace=wrap;html=1;container=1;collapsible=0;recursiveResize=0;outlineConnect=0;" vertex="1" parent="1">
          <mxGeometry x="480" y="80" width="100" height="340" as="geometry" />
        </mxCell>
        <mxCell id="3QxqJV67HX_IBzd8UFvW-7" value="" style="html=1;points=[];perimeter=orthogonalPerimeter;" vertex="1" parent="3QxqJV67HX_IBzd8UFvW-6">
          <mxGeometry x="45" y="200" width="10" height="140" as="geometry" />
        </mxCell>
        <mxCell id="3QxqJV67HX_IBzd8UFvW-8" value="MongoDB" style="shape=umlLifeline;perimeter=lifelinePerimeter;whiteSpace=wrap;html=1;container=1;collapsible=0;recursiveResize=0;outlineConnect=0;" vertex="1" parent="1">
          <mxGeometry y="80" width="100" height="390" as="geometry" />
        </mxCell>
        <mxCell id="3QxqJV67HX_IBzd8UFvW-9" value="" style="endArrow=classic;html=1;" edge="1" parent="1" source="3QxqJV67HX_IBzd8UFvW-2" target="3QxqJV67HX_IBzd8UFvW-4">
          <mxGeometry width="50" height="50" relative="1" as="geometry">
            <mxPoint x="230" y="200" as="sourcePoint" />
            <mxPoint x="320" y="250" as="targetPoint" />
            <Array as="points">
              <mxPoint x="290" y="200" />
            </Array>
          </mxGeometry>
        </mxCell>
        <mxCell id="3QxqJV67HX_IBzd8UFvW-10" value="Sucht neue&lt;br&gt;&amp;nbsp;XML Dateien" style="edgeLabel;html=1;align=center;verticalAlign=middle;resizable=0;points=[];" vertex="1" connectable="0" parent="3QxqJV67HX_IBzd8UFvW-9">
          <mxGeometry x="-0.2602" relative="1" as="geometry">
            <mxPoint x="11" as="offset" />
          </mxGeometry>
        </mxCell>
        <mxCell id="3QxqJV67HX_IBzd8UFvW-11" value="" style="endArrow=classic;html=1;exitX=0.4;exitY=0.975;exitDx=0;exitDy=0;exitPerimeter=0;" edge="1" parent="1" source="3QxqJV67HX_IBzd8UFvW-5" target="3QxqJV67HX_IBzd8UFvW-1">
          <mxGeometry width="50" height="50" relative="1" as="geometry">
            <mxPoint x="290" y="420" as="sourcePoint" />
            <mxPoint x="340" y="370" as="targetPoint" />
          </mxGeometry>
        </mxCell>
        <mxCell id="3QxqJV67HX_IBzd8UFvW-12" value="Gibt XML&lt;br&gt;&amp;nbsp;Dateien zurück" style="edgeLabel;html=1;align=center;verticalAlign=middle;resizable=0;points=[];" vertex="1" connectable="0" parent="3QxqJV67HX_IBzd8UFvW-11">
          <mxGeometry x="0.3041" y="2" relative="1" as="geometry">
            <mxPoint x="25" y="-1" as="offset" />
          </mxGeometry>
        </mxCell>
        <mxCell id="3QxqJV67HX_IBzd8UFvW-13" value="" style="endArrow=classic;html=1;entryX=0.2;entryY=0.013;entryDx=0;entryDy=0;entryPerimeter=0;" edge="1" parent="1" source="3QxqJV67HX_IBzd8UFvW-2" target="3QxqJV67HX_IBzd8UFvW-7">
          <mxGeometry width="50" height="50" relative="1" as="geometry">
            <mxPoint x="340" y="370" as="sourcePoint" />
            <mxPoint x="520" y="290" as="targetPoint" />
          </mxGeometry>
        </mxCell>
        <mxCell id="3QxqJV67HX_IBzd8UFvW-14" value="Sendet XML Dateien" style="edgeLabel;html=1;align=center;verticalAlign=middle;resizable=0;points=[];" vertex="1" connectable="0" parent="3QxqJV67HX_IBzd8UFvW-13">
          <mxGeometry x="-0.1619" relative="1" as="geometry">
            <mxPoint as="offset" />
          </mxGeometry>
        </mxCell>
        <mxCell id="3QxqJV67HX_IBzd8UFvW-15" value="" style="endArrow=classic;html=1;" edge="1" parent="1" source="3QxqJV67HX_IBzd8UFvW-6" target="3QxqJV67HX_IBzd8UFvW-6">
          <mxGeometry width="50" height="50" relative="1" as="geometry">
            <mxPoint x="560" y="330" as="sourcePoint" />
            <mxPoint x="600" y="380" as="targetPoint" />
            <Array as="points">
              <mxPoint x="600" y="320" />
              <mxPoint x="600" y="380" />
            </Array>
          </mxGeometry>
        </mxCell>
        <mxCell id="3QxqJV67HX_IBzd8UFvW-16" value="Extrahiert Reden&lt;br&gt;&amp;nbsp;mit Metadaten" style="edgeLabel;html=1;align=center;verticalAlign=middle;resizable=0;points=[];" vertex="1" connectable="0" parent="3QxqJV67HX_IBzd8UFvW-15">
          <mxGeometry x="-0.2314" y="-1" relative="1" as="geometry">
            <mxPoint y="24" as="offset" />
          </mxGeometry>
        </mxCell>
        <mxCell id="3QxqJV67HX_IBzd8UFvW-17" value="" style="endArrow=classic;html=1;exitX=0.4;exitY=1;exitDx=0;exitDy=0;exitPerimeter=0;entryX=0.6;entryY=0.007;entryDx=0;entryDy=0;entryPerimeter=0;" edge="1" parent="1" source="3QxqJV67HX_IBzd8UFvW-7" target="3QxqJV67HX_IBzd8UFvW-3">
          <mxGeometry width="50" height="50" relative="1" as="geometry">
            <mxPoint x="380" y="480" as="sourcePoint" />
            <mxPoint x="430" y="430" as="targetPoint" />
          </mxGeometry>
        </mxCell>
        <mxCell id="3QxqJV67HX_IBzd8UFvW-18" value="Sendet Reden mit Metadaten" style="edgeLabel;html=1;align=center;verticalAlign=middle;resizable=0;points=[];" vertex="1" connectable="0" parent="3QxqJV67HX_IBzd8UFvW-17">
          <mxGeometry x="0.151" y="2" relative="1" as="geometry">
            <mxPoint x="19" y="-2" as="offset" />
          </mxGeometry>
        </mxCell>
        <mxCell id="3QxqJV67HX_IBzd8UFvW-19" value="P2P Framework" style="shape=umlLifeline;perimeter=lifelinePerimeter;whiteSpace=wrap;html=1;container=1;collapsible=0;recursiveResize=0;outlineConnect=0;" vertex="1" parent="1">
          <mxGeometry x="640" y="80" width="100" height="420" as="geometry" />
        </mxCell>
        <mxCell id="3QxqJV67HX_IBzd8UFvW-20" value="" style="html=1;points=[];perimeter=orthogonalPerimeter;" vertex="1" parent="3QxqJV67HX_IBzd8UFvW-19">
          <mxGeometry x="45" y="380" width="10" height="40" as="geometry" />
        </mxCell>
        <mxCell id="3QxqJV67HX_IBzd8UFvW-21" value="" style="endArrow=classic;html=1;exitX=0.4;exitY=1.05;exitDx=0;exitDy=0;exitPerimeter=0;" edge="1" parent="1" source="3QxqJV67HX_IBzd8UFvW-3" target="3QxqJV67HX_IBzd8UFvW-19">
          <mxGeometry width="50" height="50" relative="1" as="geometry">
            <mxPoint x="400" y="530" as="sourcePoint" />
            <mxPoint x="550" y="470" as="targetPoint" />
          </mxGeometry>
        </mxCell>
        <mxCell id="3QxqJV67HX_IBzd8UFvW-22" value="Fragt relevanten Peers an&lt;br&gt;und überträgt Reden mit Metadaten" style="edgeLabel;html=1;align=center;verticalAlign=middle;resizable=0;points=[];" vertex="1" connectable="0" parent="3QxqJV67HX_IBzd8UFvW-21">
          <mxGeometry x="-0.1176" y="-1" relative="1" as="geometry">
            <mxPoint as="offset" />
          </mxGeometry>
        </mxCell>
        <mxCell id="3QxqJV67HX_IBzd8UFvW-23" value="Volltextsuche" style="shape=umlLifeline;perimeter=lifelinePerimeter;whiteSpace=wrap;html=1;container=1;collapsible=0;recursiveResize=0;outlineConnect=0;" vertex="1" parent="1">
          <mxGeometry x="800" y="80" width="100" height="520" as="geometry" />
        </mxCell>
        <mxCell id="3QxqJV67HX_IBzd8UFvW-24" value="" style="html=1;points=[];perimeter=orthogonalPerimeter;" vertex="1" parent="3QxqJV67HX_IBzd8UFvW-23">
          <mxGeometry x="45" y="420" width="10" height="100" as="geometry" />
        </mxCell>
        <mxCell id="3QxqJV67HX_IBzd8UFvW-25" value="" style="endArrow=classic;html=1;exitX=0.4;exitY=1;exitDx=0;exitDy=0;exitPerimeter=0;" edge="1" parent="1" source="3QxqJV67HX_IBzd8UFvW-20" target="3QxqJV67HX_IBzd8UFvW-24">
          <mxGeometry width="50" height="50" relative="1" as="geometry">
            <mxPoint x="780" y="480" as="sourcePoint" />
            <mxPoint x="790" y="540" as="targetPoint" />
          </mxGeometry>
        </mxCell>
        <mxCell id="3QxqJV67HX_IBzd8UFvW-26" value="Sendet Reden&lt;br&gt;&amp;nbsp;mit Metadaten" style="edgeLabel;html=1;align=center;verticalAlign=middle;resizable=0;points=[];" vertex="1" connectable="0" parent="3QxqJV67HX_IBzd8UFvW-25">
          <mxGeometry x="-0.2179" y="-1" relative="1" as="geometry">
            <mxPoint x="10" y="-1" as="offset" />
          </mxGeometry>
        </mxCell>
        <mxCell id="3QxqJV67HX_IBzd8UFvW-27" value="" style="endArrow=classic;html=1;" edge="1" parent="1">
          <mxGeometry width="50" height="50" relative="1" as="geometry">
            <mxPoint x="850" y="540" as="sourcePoint" />
            <mxPoint x="850" y="600" as="targetPoint" />
            <Array as="points">
              <mxPoint x="910" y="540" />
              <mxPoint x="910" y="600" />
            </Array>
          </mxGeometry>
        </mxCell>
        <mxCell id="3QxqJV67HX_IBzd8UFvW-28" value="Erstellung des&lt;br&gt;&amp;nbsp;invertierten Index" style="edgeLabel;html=1;align=center;verticalAlign=middle;resizable=0;points=[];" vertex="1" connectable="0" parent="3QxqJV67HX_IBzd8UFvW-27">
          <mxGeometry x="-0.1111" y="-1" relative="1" as="geometry">
            <mxPoint y="10" as="offset" />
          </mxGeometry>
        </mxCell>
        <mxCell id="3QxqJV67HX_IBzd8UFvW-29" value="" style="endArrow=classic;html=1;exitX=0.3;exitY=1.05;exitDx=0;exitDy=0;exitPerimeter=0;" edge="1" parent="1" source="3QxqJV67HX_IBzd8UFvW-3" target="3QxqJV67HX_IBzd8UFvW-8">
          <mxGeometry width="50" height="50" relative="1" as="geometry">
            <mxPoint x="120" y="540" as="sourcePoint" />
            <mxPoint x="170" y="490" as="targetPoint" />
          </mxGeometry>
        </mxCell>
        <mxCell id="3QxqJV67HX_IBzd8UFvW-30" value="Reden ablegen &lt;br&gt;und persistieren" style="edgeLabel;html=1;align=center;verticalAlign=middle;resizable=0;points=[];" vertex="1" connectable="0" parent="3QxqJV67HX_IBzd8UFvW-29">
          <mxGeometry x="0.1609" y="-1" relative="1" as="geometry">
            <mxPoint x="14" y="-1" as="offset" />
          </mxGeometry>
        </mxCell>
      </root>
    </mxGraphModel>
  </diagram>
</mxfile>
